<svg xmlns="http://www.w3.org/2000/svg" viewBox="0 0 592 696" fill="none">
<polyline points="238.00,106.00 236.00,115.00 236.00,125.00 239.00,135.00 242.00,145.00 241.00,154.00 231.00,160.00 220.00,168.00 212.00,177.00 208.00,187.00 206.00,197.00 205.00,207.00 199.00,217.00 197.00,228.00 199.00,238.00 192.00,245.00 184.00,250.00 194.00,245.00 202.00,246.00 193.00,254.00 198.00,250.00 207.00,251.00 203.00,261.00 203.00,261.00 208.00,251.00 217.00,257.00 228.00,259.00 236.00,267.00 234.00,263.00 238.00,259.00 246.00,267.00 246.00,277.00 244.00,288.00 240.00,298.00 236.00,308.00 232.00,318.00 227.00,328.00 224.00,338.00 222.00,348.00 221.00,359.00 221.00,369.00 222.00,379.00 224.00,389.00 225.00,399.00 227.00,409.00 230.00,420.00 231.00,430.00 231.00,440.00 232.00,450.00 232.00,460.00 232.00,470.00 232.00,481.00 231.00,491.00 231.00,501.00 230.00,511.00 228.00,521.00 227.00,531.00 217.00,533.00 208.00,541.00 206.00,551.00 208.00,561.00 216.00,568.00 226.00,573.00 236.00,575.00 247.00,577.00 257.00,579.00 267.00,581.00 277.00,584.00 287.00,586.00 297.00,588.00 308.00,589.00 318.00,590.00 328.00,592.00 338.00,592.00 348.00,592.00 358.00,591.00 368.00,590.00 379.00,588.00 389.00,584.00 398.00,576.00 403.00,568.00 405.00,558.00 405.00,548.00 404.00,537.00 406.00,527.00 409.00,517.00 412.00,507.00 414.00,497.00 415.00,487.00 415.00,476.00 415.00,466.00 414.00,456.00 414.00,446.00 413.00,436.00 412.00,426.00 411.00,416.00 409.00,405.00 408.00,395.00 405.00,385.00 403.00,375.00 399.00,365.00 395.00,355.00 389.00,344.00 384.00,334.00 377.00,324.00 371.00,314.00 364.00,304.00 357.00,295.00 350.00,285.00 344.00,275.00 337.00,265.00 331.00,255.00 327.00,245.00 322.00,235.00 319.00,225.00 316.00,214.00 315.00,204.00 313.00,194.00 309.00,184.00 304.00,174.00 298.00,164.00 289.00,153.00 280.00,147.00 270.00,139.00 264.00,130.00 257.00,121.00 249.00,112.00 239.00,106.00" stroke="#000000" stroke-width="2" stroke-linecap="round" stroke-linejoin="round" />
<polyline points="217.00,192.00 216.00,193.00 216.00,194.00 216.00,195.00 215.00,196.00 215.00,197.00 214.00,198.00 214.00,199.00 214.00,200.00 214.00,201.00 213.00,202.00 213.00,203.00 213.00,204.00 213.00,205.00 213.00,206.00 212.00,207.00 212.00,208.00 212.00,209.00 212.00,210.00 212.00,211.00 212.00,212.00 212.00,213.00 212.00,214.00 212.00,215.00 212.00,216.00 213.00,217.00 214.00,217.00 215.00,217.00 216.00,217.00 217.00,216.00 218.00,216.00 218.00,215.00 219.00,214.00 219.00,213.00 220.00,212.00 220.00,211.00 221.00,210.00 221.00,209.00 222.00,208.00 222.00,207.00 222.00,206.00 222.00,205.00 223.00,204.00 223.00,203.00 224.00,202.00 224.00,201.00 225.00,200.00 226.00,200.00 226.00,199.00 225.00,199.00 224.00,198.00 223.00,198.00 222.00,197.00 222.00,196.00 221.00,196.00 220.00,195.00 220.00,194.00 220.00,193.00 219.00,192.00 218.00,192.00" stroke="#000000" stroke-width="2" stroke-linecap="round" stroke-linejoin="round" />
<polyline points="212.00,237.00 213.00,237.00 214.00,238.00 215.00,238.00 216.00,238.00 217.00,238.00 218.00,238.00 219.00,239.00 220.00,240.00 221.00,240.00 222.00,240.00 223.00,241.00 222.00,240.00 221.00,240.00 220.00,239.00 219.00,239.00 218.00,238.00 217.00,238.00 216.00,238.00 215.00,237.00 214.00,237.00 213.00,237.00" stroke="#000000" stroke-width="2" stroke-linecap="round" stroke-linejoin="round" />
<polyline points="221.00,177.00 220.00,178.00 219.00,179.00 218.00,179.00 217.00,180.00 217.00,181.00 216.00,182.00 216.00,183.00 215.00,184.00 215.00,185.00 216.00,184.00 216.00,183.00 217.00,182.00 218.00,181.00 219.00,180.00 220.00,179.00 221.00,178.00 222.00,178.00 223.00,178.00 223.00,177.00 222.00,177.00" stroke="#000000" stroke-width="2" stroke-linecap="round" stroke-linejoin="round" />
</svg>